# This file uses centimeters as units for non-parametric coordinates.

mtllib chairforfrank.mtl
g default
v 3.363570 -3.767372 -3.269270
v 3.990461 -3.767372 -3.269270
v 6.631125 -3.767372 -3.269270
v 9.236061 1.528929 -3.292596
v 9.898679 1.528929 -3.292596
v 3.363570 -3.965754 -3.268397
v 3.990461 -3.965754 -3.268397
v 6.631125 -3.965754 -3.268397
v 9.236061 -3.965754 -3.268397
v 9.898679 -3.965754 -3.268397
v 3.363570 -4.164136 -3.267523
v 3.990461 -4.164136 -3.267523
v 6.631125 -4.164136 -3.267523
v 9.236061 -4.164136 -3.267523
v 9.898679 -4.164136 -3.267523
v 3.363570 -4.362517 -3.266649
v 3.990461 -4.362517 -3.266649
v 6.631125 -4.362517 -3.266649
v 9.236061 -4.362517 -3.266649
v 9.898679 -4.362517 -3.266649
v 3.363570 -4.560899 -3.265776
v 3.990461 -4.560899 -3.265776
v 6.631125 -4.560899 -3.265776
v 9.236061 -4.560899 -3.265776
v 9.898679 -4.560899 -3.265776
v 3.363570 -4.558363 -2.690006
v 3.990461 -4.558363 -2.690006
v 6.631125 -4.558363 -2.690006
v 9.236061 -4.558363 -2.690006
v 9.898679 -4.558363 -2.690006
v 3.363570 -4.546508 0.001747
v 3.990461 -4.546508 0.001747
v 6.631125 -4.546508 0.001747
v 9.236061 -4.546508 0.001747
v 9.898679 -4.546508 0.001747
v 3.363570 -4.535484 2.504846
v 3.990461 -4.535484 2.504846
v 6.631125 -4.535484 2.504846
v 9.236061 -4.535484 2.504846
v 9.898679 -4.535484 2.504846
v 3.363570 -4.532117 3.269270
v 3.990461 -4.532117 3.269270
v 6.631125 -4.532117 3.269270
v 9.236061 -4.532117 3.269270
v 9.898679 -4.532117 3.269270
v 3.363570 -4.333736 3.268397
v 3.990461 -4.333736 3.268397
v 6.631125 -4.333736 3.268397
v 9.236061 -4.333736 3.268397
v 9.898679 -4.333736 3.268397
v 3.363570 -4.135355 3.267523
v 3.990461 -4.135355 3.267523
v 6.631125 -4.135355 3.267523
v 9.236061 -4.135355 3.267523
v 9.898679 -4.135355 3.267523
v 3.363570 -3.936972 3.266649
v 3.990461 -3.936972 3.266649
v 6.631125 -3.936972 3.266649
v 9.236061 -3.936972 3.266649
v 9.898679 -3.936972 3.266649
v 3.363570 -3.738590 3.265776
v 3.394479 -3.738590 3.265776
v 6.631125 -3.738590 3.265776
v 9.236061 1.557711 3.242450
v 9.898679 1.557711 3.242450
v 3.363570 -3.741957 2.501351
v 3.394479 -3.741957 2.501351
v 6.631125 -3.741957 2.501351
v 9.236061 1.554344 2.478025
v 9.898679 1.554344 2.478025
v 3.363570 -3.752981 -0.001747
v 3.360411 -3.752981 -0.001747
v 6.631125 -3.752981 -0.001747
v 9.236061 1.543320 -0.025073
v 9.898679 1.543320 -0.025073
v 3.363570 -3.764836 -2.693501
v 3.365727 -3.764836 -2.693501
v 6.631125 -3.764836 -2.693501
v 9.236061 1.531465 -2.716827
v 9.898679 1.531465 -2.716827
v 9.898679 -3.940339 2.502225
v 9.898679 -3.951363 -0.000874
v 9.898679 -3.963218 -2.692628
v 9.898679 -4.138721 2.503099
v 9.898679 -4.149745 0.000000
v 9.898679 -4.161600 -2.691754
v 9.898679 -4.337102 2.503973
v 9.898679 -4.348126 0.000874
v 9.898679 -4.359981 -2.690880
v 3.363570 -3.940339 2.502225
v 3.363570 -3.951363 -0.000874
v 3.363570 -3.963218 -2.692628
v 3.363570 -4.138721 2.503099
v 3.363570 -4.149745 0.000000
v 3.363570 -4.161600 -2.691754
v 3.363570 -4.337102 2.503973
v 3.363570 -4.348126 0.000874
v 3.363570 -4.359981 -2.690880
v 4.384326 -2.009745 3.258161
v 7.620972 -2.009745 3.258161
v 7.620972 -2.013112 2.493737
v 4.384326 -2.013112 2.493737
v 3.359212 -3.764836 -2.693501
v 6.631125 -3.764836 -2.693501
v 6.631125 -3.767372 -3.269270
v 3.359212 -3.767372 -3.269270
v 4.305927 -1.968537 -2.701412
v 7.577840 -1.968537 -2.701412
v 7.577840 -1.971073 -3.277182
v 4.305927 -1.971073 -3.277182
v 3.363570 -9.398744 -3.244470
v 3.990461 -9.398744 -3.244470
v 3.990461 -9.396210 -2.668700
v 3.363570 -9.396210 -2.668700
v 9.236061 -9.398744 -3.244470
v 9.898679 -9.398744 -3.244470
v 9.898679 -9.396210 -2.668700
v 9.236061 -9.396210 -2.668700
v 3.363570 -9.373331 2.526153
v 3.990461 -9.373331 2.526153
v 3.990461 -9.369963 3.290577
v 3.363570 -9.369963 3.290577
v 9.236061 -9.373330 2.526153
v 9.898679 -9.373330 2.526153
v 9.898679 -9.369963 3.290577
v 9.236061 -9.369963 3.290577
v 9.236061 3.303476 3.234760
v 9.898679 3.303476 3.234760
v 9.898679 3.300110 2.470337
v 9.236061 3.300110 2.470337
v 9.898679 3.289085 -0.032762
v 9.236061 3.289085 -0.032762
v 9.898679 3.277230 -2.724516
v 9.236061 3.277230 -2.724516
v 9.898679 3.274695 -3.300285
v 9.236061 3.274695 -3.300285
vt 0.375000 0.000000
vt 0.437500 0.000000
vt 0.500000 0.000000
vt 0.562500 0.000000
vt 0.625000 0.000000
vt 0.375000 0.062500
vt 0.437500 0.062500
vt 0.500000 0.062500
vt 0.562500 0.062500
vt 0.625000 0.062500
vt 0.375000 0.125000
vt 0.437500 0.125000
vt 0.500000 0.125000
vt 0.562500 0.125000
vt 0.625000 0.125000
vt 0.375000 0.187500
vt 0.437500 0.187500
vt 0.500000 0.187500
vt 0.562500 0.187500
vt 0.625000 0.187500
vt 0.375000 0.250000
vt 0.437500 0.250000
vt 0.500000 0.250000
vt 0.562500 0.250000
vt 0.625000 0.250000
vt 0.375000 0.312500
vt 0.437500 0.312500
vt 0.500000 0.312500
vt 0.562500 0.312500
vt 0.625000 0.312500
vt 0.375000 0.375000
vt 0.437500 0.375000
vt 0.500000 0.375000
vt 0.562500 0.375000
vt 0.625000 0.375000
vt 0.375000 0.437500
vt 0.437500 0.437500
vt 0.500000 0.437500
vt 0.562500 0.437500
vt 0.625000 0.437500
vt 0.375000 0.500000
vt 0.437500 0.500000
vt 0.500000 0.500000
vt 0.562500 0.500000
vt 0.625000 0.500000
vt 0.375000 0.562500
vt 0.437500 0.562500
vt 0.500000 0.562500
vt 0.562500 0.562500
vt 0.625000 0.562500
vt 0.375000 0.625000
vt 0.437500 0.625000
vt 0.500000 0.625000
vt 0.562500 0.625000
vt 0.625000 0.625000
vt 0.375000 0.687500
vt 0.437500 0.687500
vt 0.500000 0.687500
vt 0.562500 0.687500
vt 0.625000 0.687500
vt 0.375000 0.750000
vt 0.437500 0.750000
vt 0.500000 0.750000
vt 0.562500 0.750000
vt 0.625000 0.750000
vt 0.375000 0.812500
vt 0.437500 0.812500
vt 0.500000 0.812500
vt 0.562500 0.812500
vt 0.625000 0.812500
vt 0.375000 0.875000
vt 0.437500 0.875000
vt 0.500000 0.875000
vt 0.562500 0.875000
vt 0.625000 0.875000
vt 0.375000 0.937500
vt 0.437500 0.937500
vt 0.500000 0.937500
vt 0.562500 0.937500
vt 0.625000 0.937500
vt 0.375000 1.000000
vt 0.437500 1.000000
vt 0.500000 1.000000
vt 0.562500 1.000000
vt 0.625000 1.000000
vt 0.875000 0.000000
vt 0.812500 0.000000
vt 0.750000 0.000000
vt 0.687500 0.000000
vt 0.875000 0.062500
vt 0.812500 0.062500
vt 0.750000 0.062500
vt 0.687500 0.062500
vt 0.875000 0.125000
vt 0.812500 0.125000
vt 0.750000 0.125000
vt 0.687500 0.125000
vt 0.875000 0.187500
vt 0.812500 0.187500
vt 0.750000 0.187500
vt 0.687500 0.187500
vt 0.875000 0.250000
vt 0.812500 0.250000
vt 0.750000 0.250000
vt 0.687500 0.250000
vt 0.125000 0.000000
vt 0.187500 0.000000
vt 0.250000 0.000000
vt 0.312500 0.000000
vt 0.125000 0.062500
vt 0.187500 0.062500
vt 0.250000 0.062500
vt 0.312500 0.062500
vt 0.125000 0.125000
vt 0.187500 0.125000
vt 0.250000 0.125000
vt 0.312500 0.125000
vt 0.125000 0.187500
vt 0.187500 0.187500
vt 0.250000 0.187500
vt 0.312500 0.187500
vt 0.125000 0.250000
vt 0.187500 0.250000
vt 0.250000 0.250000
vt 0.312500 0.250000
vt 0.437500 0.750000
vt 0.500000 0.750000
vt 0.500000 0.812500
vt 0.437500 0.812500
vt 0.437500 0.937500
vt 0.500000 0.937500
vt 0.500000 1.000000
vt 0.437500 1.000000
vt 0.437500 0.937500
vt 0.500000 0.937500
vt 0.500000 1.000000
vt 0.437500 1.000000
vt 0.375000 0.250000
vt 0.437500 0.250000
vt 0.437500 0.312500
vt 0.375000 0.312500
vt 0.562500 0.250000
vt 0.625000 0.250000
vt 0.625000 0.312500
vt 0.562500 0.312500
vt 0.375000 0.437500
vt 0.437500 0.437500
vt 0.437500 0.500000
vt 0.375000 0.500000
vt 0.562500 0.437500
vt 0.625000 0.437500
vt 0.625000 0.500000
vt 0.562500 0.500000
vt 0.562500 0.750000
vt 0.625000 0.750000
vt 0.625000 0.812500
vt 0.562500 0.812500
vt 0.625000 0.875000
vt 0.562500 0.875000
vt 0.625000 0.937500
vt 0.562500 0.937500
vt 0.625000 1.000000
vt 0.562500 1.000000
vn 0.000000 -0.004404 -0.999990
vn 0.000000 -0.004404 -0.999990
vn 0.000000 -0.004404 -0.999990
vn 0.000000 -0.004404 -0.999990
vn -0.000000 -0.004404 -0.999990
vn -0.000000 -0.004404 -0.999990
vn -0.000000 -0.004404 -0.999990
vn -0.000000 -0.004404 -0.999990
vn 0.000000 -0.004404 -0.999990
vn 0.000000 -0.004404 -0.999990
vn 0.000000 -0.004404 -0.999990
vn 0.000000 -0.004404 -0.999990
vn 0.000000 -0.004404 -0.999990
vn 0.000000 -0.004404 -0.999990
vn 0.000000 -0.004404 -0.999990
vn 0.000000 -0.004403 -0.999990
vn 0.000000 -0.004403 -0.999990
vn 0.000000 -0.004403 -0.999990
vn 0.000000 -0.004403 -0.999990
vn 0.000000 -0.004403 -0.999990
vn 0.000000 -0.004404 -0.999990
vn 0.000000 -0.004404 -0.999990
vn 0.000000 -0.004402 -0.999990
vn 0.000000 -0.004404 -0.999990
vn 0.000000 -0.004404 -0.999990
vn 0.000000 -0.999990 0.004402
vn 0.000000 -0.999990 0.004402
vn 0.000000 -0.999990 0.004402
vn 0.000000 -0.999990 0.004402
vn 0.000000 -0.999990 0.004404
vn 0.000000 -0.999990 0.004404
vn 0.000000 -0.999990 0.004404
vn 0.000000 -0.999990 0.004404
vn 0.000000 -0.999990 0.004404
vn 0.000000 -0.999990 0.004404
vn 0.000000 -0.999990 0.004402
vn 0.000000 -0.999990 0.004402
vn 0.000000 -0.999990 0.004402
vn 0.000000 -0.999990 0.004402
vn 0.000000 -0.999990 0.004404
vn 0.000000 -0.999990 0.004404
vn 0.000000 -0.999990 0.004404
vn 0.000000 -0.999990 0.004404
vn 0.000000 -0.999990 0.004404
vn 0.000000 -0.999990 0.004404
vn 0.000000 -0.999990 0.004404
vn 0.000000 -0.999990 0.004404
vn 0.000000 -0.999990 0.004404
vn 0.000000 -0.999990 0.004404
vn 0.000000 -0.999990 0.004404
vn 0.000000 -0.999990 0.004404
vn 0.000000 -0.999990 0.004406
vn 0.000000 -0.999990 0.004406
vn 0.000000 -0.999990 0.004406
vn 0.000000 -0.999990 0.004406
vn 0.000000 -0.999990 0.004405
vn 0.000000 -0.999990 0.004405
vn 0.000000 -0.999990 0.004405
vn 0.000000 -0.999990 0.004405
vn 0.000000 -0.999990 0.004405
vn 0.000000 -0.999990 0.004405
vn 0.000000 -0.999990 0.004405
vn 0.000000 0.004404 0.999990
vn 0.000000 0.004404 0.999990
vn 0.000000 0.004404 0.999990
vn 0.000000 0.004404 0.999990
vn 0.000000 0.004404 0.999990
vn 0.000000 0.004404 0.999990
vn 0.000000 0.004404 0.999990
vn 0.000000 0.004404 0.999990
vn 0.000000 0.004404 0.999990
vn 0.000000 0.004404 0.999990
vn 0.000000 0.004404 0.999990
vn 0.000000 0.004404 0.999990
vn 0.000000 0.004404 0.999990
vn 0.000000 0.004404 0.999990
vn 0.000000 0.004404 0.999990
vn 0.000000 0.004403 0.999990
vn 0.000000 0.004403 0.999990
vn -0.000000 0.004404 0.999990
vn -0.000000 0.004404 0.999990
vn 0.000000 0.004404 0.999990
vn 0.000000 0.004404 0.999990
vn 0.000000 0.004402 0.999990
vn -0.000000 0.004404 0.999990
vn -0.000000 0.004404 0.999990
vn 0.000000 0.004404 0.999990
vn -0.000012 0.999990 -0.004405
vn -0.000012 0.999990 -0.004405
vn -0.000000 0.999990 -0.004404
vn -0.000013 0.999990 -0.004404
vn 0.000000 0.999990 -0.004404
vn 0.000000 0.999990 -0.004404
vn 0.000000 0.999990 -0.004404
vn 0.000000 0.999990 -0.004404
vn -0.897338 0.441339 -0.001944
vn -0.937890 0.346929 -0.001528
vn -0.937890 0.346929 -0.001528
vn -0.720508 0.693440 -0.003054
vn 0.000000 0.999990 -0.004404
vn 0.000000 0.999990 -0.004404
vn 0.000000 0.999990 -0.004404
vn 0.000000 0.999990 -0.004404
vn -0.000000 0.999990 -0.004404
vn -0.000014 0.999990 -0.004404
vn -0.670145 0.742223 -0.003269
vn -0.937890 0.346929 -0.001528
vn 0.000000 0.999990 -0.004404
vn 0.000000 0.999990 -0.004404
vn 0.000000 0.999990 -0.004404
vn 0.000000 0.999990 -0.004404
vn -0.707055 0.707152 -0.003114
vn -0.937890 0.346929 -0.001528
vn 0.000000 0.999990 -0.004404
vn 0.000000 0.999990 -0.004404
vn 0.000000 0.999990 -0.004404
vn 0.000000 0.999990 -0.004404
vn 0.000000 0.999990 -0.004404
vn 0.000000 0.999990 -0.004404
vn 0.000000 0.999990 -0.004404
vn 0.000000 0.999990 -0.004404
vn -0.937890 0.346929 -0.001528
vn -0.897338 0.441339 -0.001944
vn 0.000000 0.999990 -0.004404
vn 0.000000 0.999990 -0.004404
vn 1.000000 0.000000 -0.000000
vn 1.000000 0.000000 -0.000000
vn 1.000000 0.000000 -0.000000
vn 1.000000 0.000000 -0.000000
vn 1.000000 -0.000000 0.000000
vn 1.000000 0.000000 -0.000000
vn 1.000000 -0.000000 0.000000
vn 1.000000 0.000000 -0.000000
vn 1.000000 -0.000000 0.000000
vn 1.000000 -0.000000 0.000000
vn 1.000000 -0.000000 0.000000
vn 1.000000 -0.000000 0.000000
vn 1.000000 -0.000000 0.000000
vn 1.000000 -0.000000 0.000000
vn 1.000000 -0.000000 0.000000
vn 1.000000 0.000000 -0.000000
vn 1.000000 -0.000000 0.000000
vn 1.000000 -0.000000 0.000000
vn 1.000000 0.000000 -0.000000
vn 1.000000 0.000000 -0.000000
vn 1.000000 0.000000 -0.000000
vn 1.000000 -0.000000 0.000000
vn 1.000000 -0.000000 0.000000
vn 1.000000 0.000000 -0.000000
vn 1.000000 0.000000 -0.000000
vn -1.000000 -0.000000 0.000000
vn -1.000000 -0.000000 0.000000
vn -1.000000 -0.000000 0.000000
vn -1.000000 -0.000000 0.000000
vn -1.000000 0.000000 0.000000
vn -1.000000 -0.000000 0.000000
vn -1.000000 -0.000000 0.000000
vn -1.000000 -0.000000 0.000000
vn -1.000000 -0.000000 0.000000
vn -1.000000 0.000000 0.000000
vn -1.000000 0.000000 -0.000000
vn -1.000000 0.000000 0.000000
vn -1.000000 0.000000 -0.000000
vn -1.000000 0.000000 -0.000000
vn -1.000000 0.000000 -0.000000
vn -1.000000 0.000000 -0.000000
vn -1.000000 0.000000 0.000000
vn -1.000000 0.000000 -0.000000
vn -1.000000 0.000000 -0.000000
vn -1.000000 0.000000 0.000000
vn -1.000000 0.000000 -0.000000
vn -1.000000 0.000000 -0.000000
vn -1.000000 0.000000 -0.000000
vn -1.000000 0.000000 -0.000000
vn -1.000000 -0.000000 0.000000
vn 0.000000 0.004404 0.999990
vn 0.000000 0.004404 0.999990
vn 0.867826 -0.496863 0.002188
vn 0.867826 -0.496863 0.002188
vn 0.867826 -0.496863 0.002188
vn 0.867826 -0.496863 0.002188
vn 0.000000 -0.004404 -0.999990
vn 0.000000 -0.004404 -0.999990
vn 0.000000 -0.004404 -0.999990
vn 0.000000 -0.004404 -0.999990
vn -0.867826 0.496863 -0.002188
vn -0.867826 0.496863 -0.002188
vn -0.867826 0.496863 -0.002188
vn -0.867826 0.496863 -0.002188
vn 0.000000 -0.000000 0.000000
vn 0.000000 -0.000000 0.000000
vn 0.000000 -0.000000 0.000000
vn 0.000000 -0.000000 0.000000
vn 0.000000 -0.000000 0.000000
vn 0.000000 -0.000000 0.000000
vn 0.000000 -0.000000 0.000000
vn 0.000000 -0.000000 0.000000
vn 0.000000 -0.000000 0.000000
vn 0.000000 -0.000000 0.000000
vn 0.000000 -0.000000 0.000000
vn 0.000000 -0.000000 0.000000
vn 0.000000 -0.999990 0.004404
vn 0.000000 -0.999990 0.004404
vn 0.000000 -0.999990 0.004404
vn 0.000000 -0.999990 0.004404
vn 0.000000 0.004404 0.999990
vn 0.000000 0.004404 0.999990
vn 0.000000 0.004404 0.999990
vn 0.000000 0.004404 0.999990
vn 0.884657 -0.466238 0.002053
vn 0.884657 -0.466238 0.002053
vn 0.884657 -0.466238 0.002053
vn 0.884657 -0.466238 0.002053
vn 0.000000 -0.004404 -0.999990
vn 0.000000 -0.004404 -0.999990
vn 0.000000 -0.004404 -0.999990
vn 0.000000 -0.004404 -0.999990
vn -0.884657 0.466238 -0.002053
vn -0.884657 0.466238 -0.002053
vn -0.884657 0.466238 -0.002053
vn -0.884657 0.466238 -0.002053
vn 0.000000 -0.004404 -0.999990
vn 0.000000 -0.004404 -0.999990
vn 1.000000 -0.000000 0.000000
vn 1.000000 -0.000000 0.000000
vn 1.000000 -0.000000 0.000000
vn 1.000000 -0.000000 0.000000
vn 0.000000 0.004404 0.999990
vn 0.000000 0.004404 0.999990
vn 0.000000 0.004404 0.999990
vn 0.000000 0.004404 0.999990
vn -1.000000 -0.000000 0.000000
vn -1.000000 -0.000000 0.000000
vn 0.000000 -0.004404 -0.999990
vn 0.000000 -0.004404 -0.999990
vn 1.000000 0.000000 -0.000000
vn 1.000000 0.000000 -0.000000
vn 0.000000 0.004404 0.999990
vn 0.000000 0.004404 0.999990
vn 0.000000 0.004404 0.999990
vn 0.000000 0.004404 0.999990
vn -1.000000 -0.000000 0.000000
vn -1.000000 -0.000000 0.000000
vn -1.000000 -0.000000 0.000000
vn -1.000000 -0.000000 0.000000
vn 0.000000 -0.004404 -0.999990
vn 0.000000 -0.004404 -0.999990
vn 0.000000 -0.004404 -0.999990
vn 0.000000 -0.004404 -0.999990
vn 1.000000 -0.000000 0.000000
vn 1.000000 -0.000000 0.000000
vn 1.000000 -0.000000 0.000000
vn 1.000000 -0.000000 0.000000
vn 0.000000 0.004404 0.999990
vn 0.000000 0.004404 0.999990
vn -1.000000 0.000000 -0.000000
vn -1.000000 0.000000 -0.000000
vn 0.000000 -0.004404 -0.999990
vn 0.000000 -0.004404 -0.999990
vn 0.000000 -0.004404 -0.999990
vn 0.000000 -0.004404 -0.999990
vn 1.000000 -0.000000 0.000000
vn 1.000000 -0.000000 0.000000
vn 0.000000 0.004404 0.999990
vn 0.000000 0.004404 0.999990
vn -1.000000 0.000000 -0.000000
vn -1.000000 0.000000 -0.000000
vn -1.000000 0.000000 -0.000000
vn -1.000000 0.000000 -0.000000
vn 0.000000 0.004405 0.999990
vn 0.000000 0.004405 0.999990
vn 1.000000 0.000000 -0.000000
vn 1.000000 0.000000 -0.000000
vn -1.000000 0.000000 0.000000
vn -1.000000 -0.000000 0.000000
vn 1.000000 -0.000000 0.000000
vn -1.000000 -0.000000 0.000000
vn 1.000000 -0.000000 0.000000
vn -1.000000 0.000000 0.000000
vn 1.000000 -0.000000 0.000000
vn 0.000000 -0.004404 -0.999990
vn 0.000000 -0.004404 -0.999990
vn -1.000000 0.000000 0.000000
s 1
g pasted__pCube2 group
usemtl initialShadingGroup
f 1/1/1 2/2/2 7/7/3 6/6/4
f 2/2/2 3/3/5 8/8/6 7/7/3
f 3/3/5 4/4/7 9/9/8 8/8/6
f 4/4/7 5/5/9 10/10/10 9/9/8
f 6/6/4 7/7/3 12/12/11 11/11/12
f 7/7/3 8/8/6 13/13/13 12/12/11
f 8/8/6 9/9/8 14/14/14 13/13/13
f 9/9/8 10/10/10 15/15/15 14/14/14
f 11/11/12 12/12/11 17/17/16 16/16/17
f 12/12/11 13/13/13 18/18/18 17/17/16
f 13/13/13 14/14/14 19/19/19 18/18/18
f 14/14/14 15/15/15 20/20/20 19/19/19
f 16/16/17 17/17/16 22/22/21 21/21/22
f 17/17/16 18/18/18 23/23/23 22/22/21
f 18/18/18 19/19/19 24/24/24 23/23/23
f 19/19/19 20/20/20 25/25/25 24/24/24
s off
f 111/138/26 112/139/27 113/140/28 114/141/29
s 2
f 22/22/30 23/23/31 28/28/32 27/27/33
f 23/23/31 24/24/34 29/29/35 28/28/32
s off
f 115/142/36 116/143/37 117/144/38 118/145/39
s 2
f 26/26/40 27/27/33 32/32/41 31/31/42
f 27/27/33 28/28/32 33/33/43 32/32/41
f 28/28/32 29/29/35 34/34/44 33/33/43
f 29/29/35 30/30/45 35/35/46 34/34/44
f 31/31/42 32/32/41 37/37/47 36/36/48
f 32/32/41 33/33/43 38/38/49 37/37/47
f 33/33/43 34/34/44 39/39/50 38/38/49
f 34/34/44 35/35/46 40/40/51 39/39/50
s off
f 119/146/52 120/147/53 121/148/54 122/149/55
s 2
f 37/37/47 38/38/49 43/43/56 42/42/57
f 38/38/49 39/39/50 44/44/58 43/43/56
s off
f 123/150/59 124/151/60 125/152/61 126/153/62
s 3
f 41/41/63 42/42/64 47/47/65 46/46/66
f 42/42/64 43/43/67 48/48/68 47/47/65
f 43/43/67 44/44/69 49/49/70 48/48/68
f 44/44/69 45/45/71 50/50/72 49/49/70
f 46/46/66 47/47/65 52/52/73 51/51/74
f 47/47/65 48/48/68 53/53/75 52/52/73
f 48/48/68 49/49/70 54/54/76 53/53/75
f 49/49/70 50/50/72 55/55/77 54/54/76
f 51/51/74 52/52/73 57/57/78 56/56/79
f 52/52/73 53/53/75 58/58/80 57/57/78
f 53/53/75 54/54/76 59/59/81 58/58/80
f 54/54/76 55/55/77 60/60/82 59/59/81
f 56/56/79 57/57/78 62/62/83 61/61/84
f 57/57/78 58/58/80 63/63/85 62/62/83
f 58/58/80 59/59/81 64/64/86 63/63/85
f 59/59/81 60/60/82 65/65/87 64/64/86
s 4
f 61/61/88 62/62/89 67/67/90 66/66/91
s off
f 99/126/92 100/127/93 101/128/94 102/129/95
s 4
f 63/63/96 64/64/97 69/69/98 68/68/99
s 6
f 127/154/100 128/155/101 129/156/102 130/157/103
s 4
f 66/66/91 67/67/90 72/72/104 71/71/105
f 67/67/90 68/68/99 73/73/106 72/72/104
f 68/68/99 69/69/98 74/74/107 73/73/106
s 6
f 130/157/103 129/156/102 131/158/108 132/159/109
s 4
f 71/71/105 72/72/104 77/77/110 76/76/111
f 72/72/104 73/73/106 78/78/112 77/77/110
f 73/73/106 74/74/107 79/79/113 78/78/112
s 6
f 132/159/109 131/158/108 133/160/114 134/161/115
s 4
f 76/76/111 77/77/110 2/82/116 1/81/117
s off
f 107/134/118 108/135/119 109/136/120 110/137/121
s 4
f 78/78/112 79/79/113 4/84/122 3/83/123
s 6
f 134/161/115 133/160/114 135/162/124 136/163/125
s 7
f 70/87/126 65/86/127 60/90/128 81/91/129
f 75/88/130 70/87/126 81/91/129 82/92/131
f 80/89/132 75/88/130 82/92/131 83/93/133
f 5/5/134 80/89/132 83/93/133 10/10/135
f 81/91/129 60/90/128 55/94/136 84/95/137
f 82/92/131 81/91/129 84/95/137 85/96/138
f 83/93/133 82/92/131 85/96/138 86/97/139
f 10/10/135 83/93/133 86/97/139 15/15/140
f 84/95/137 55/94/136 50/98/141 87/99/142
f 85/96/138 84/95/137 87/99/142 88/100/143
f 86/97/139 85/96/138 88/100/143 89/101/144
f 15/15/140 86/97/139 89/101/144 20/20/145
f 87/99/142 50/98/141 45/102/146 40/103/147
f 88/100/143 87/99/142 40/103/147 35/104/148
f 89/101/144 88/100/143 35/104/148 30/105/149
f 20/20/145 89/101/144 30/105/149 25/25/150
s 8
f 61/106/151 66/107/152 90/111/153 56/110/154
f 66/107/152 71/108/155 91/112/156 90/111/153
f 71/108/155 76/109/157 92/113/158 91/112/156
f 76/109/157 1/1/159 6/6/160 92/113/158
f 56/110/154 90/111/153 93/115/161 51/114/162
f 90/111/153 91/112/156 94/116/163 93/115/161
f 91/112/156 92/113/158 95/117/164 94/116/163
f 92/113/158 6/6/160 11/11/165 95/117/164
f 51/114/162 93/115/161 96/119/166 46/118/167
f 93/115/161 94/116/163 97/120/168 96/119/166
f 94/116/163 95/117/164 98/121/169 97/120/168
f 95/117/164 11/11/165 16/16/170 98/121/169
f 46/118/167 96/119/166 36/123/171 41/122/172
f 96/119/166 97/120/168 31/124/173 36/123/171
f 97/120/168 98/121/169 26/125/174 31/124/173
f 98/121/169 16/16/170 21/21/175 26/125/174
s 3
f 62/62/83 63/63/85 100/127/176 99/126/177
s off
f 63/63/178 68/68/179 101/128/180 100/127/181
f 68/68/182 67/67/183 102/129/184 101/128/185
f 67/67/186 62/62/187 99/126/188 102/129/189
f 77/77/190 78/78/191 104/131/192 103/130/193
f 78/78/194 3/83/195 105/132/196 104/131/197
f 3/83/198 2/82/199 106/133/200 105/132/201
f 2/82/202 77/77/203 103/130/204 106/133/205
f 103/130/206 104/131/207 108/135/208 107/134/209
f 104/131/210 105/132/211 109/136/212 108/135/213
f 105/132/214 106/133/215 110/137/216 109/136/217
f 106/133/218 103/130/219 107/134/220 110/137/221
s 1
f 21/21/22 22/22/21 112/139/222 111/138/223
s off
f 22/22/224 27/27/225 113/140/226 112/139/227
f 27/27/228 26/26/229 114/141/230 113/140/231
s 8
f 26/26/174 21/21/175 111/138/232 114/141/233
s 1
f 24/24/24 25/25/25 116/143/234 115/142/235
s 7
f 25/25/150 30/30/149 117/144/236 116/143/237
s off
f 30/30/238 29/29/239 118/145/240 117/144/241
f 29/29/242 24/24/243 115/142/244 118/145/245
f 36/36/246 37/37/247 120/147/248 119/146/249
f 37/37/250 42/42/251 121/148/252 120/147/253
s 3
f 42/42/64 41/41/63 122/149/254 121/148/255
s 8
f 41/41/172 36/36/171 119/146/256 122/149/257
s off
f 39/39/258 40/40/259 124/151/260 123/150/261
s 7
f 40/40/147 45/45/146 125/152/262 124/151/263
s 3
f 45/45/71 44/44/69 126/153/264 125/152/265
s off
f 44/44/266 39/39/267 123/150/268 126/153/269
s 3
f 64/64/86 65/65/87 128/155/270 127/154/271
s 7
f 65/65/127 70/70/126 129/156/272 128/155/273
s 4
f 69/69/98 64/64/97 127/154/274 130/157/275
s 7
f 70/70/126 75/75/130 131/158/276 129/156/272
s 4
f 74/74/107 69/69/98 130/157/275 132/159/277
s 7
f 75/75/130 80/80/132 133/160/278 131/158/276
s 4
f 79/79/113 74/74/107 132/159/277 134/161/279
s 7
f 80/80/132 5/85/134 135/162/280 133/160/278
s 1
f 5/85/9 4/84/7 136/163/281 135/162/282
s 4
f 4/84/122 79/79/113 134/161/279 136/163/283
