# This file uses centimeters as units for non-parametric coordinates.

mtllib dartboard.mtl
g default
v -3.540110 5.059371 -3.698241
v -3.470723 6.129874 -3.159058
v -3.415508 6.981715 -2.314766
v -3.379872 7.531509 -1.248010
v -3.367302 7.725440 -0.063214
v -3.379028 7.544523 1.123649
v -3.413904 7.006469 2.196398
v -3.468514 6.163945 3.050026
v -3.537514 5.099424 3.600974
v -3.614149 3.917108 3.795312
v -3.690918 2.732732 3.614016
v -3.760306 1.662229 3.074832
v -3.815520 0.810388 2.230540
v -3.851157 0.260594 1.163786
v -3.863727 0.066663 -0.021011
v -3.852000 0.247580 -1.207872
v -3.817125 0.785634 -2.280621
v -3.762514 1.628158 -3.134250
v -3.693514 2.692679 -3.685198
v -3.616879 3.874994 -3.879535
v -3.232992 5.039464 -3.698241
v -3.163605 6.109967 -3.159058
v -3.108390 6.961808 -2.314766
v -3.072754 7.511603 -1.248010
v -3.060183 7.705533 -0.063214
v -3.071910 7.524617 1.123649
v -3.106786 6.986562 2.196398
v -3.161396 6.144038 3.050026
v -3.230396 5.079517 3.600974
v -3.307031 3.897202 3.795312
v -3.383800 2.712825 3.614016
v -3.453187 1.642322 3.074832
v -3.508402 0.790482 2.230540
v -3.544038 0.240687 1.163786
v -3.556608 0.046757 -0.021011
v -3.544882 0.227673 -1.207872
v -3.510006 0.765728 -2.280621
v -3.455396 1.608251 -3.134250
v -3.386396 2.672772 -3.685198
v -3.309761 3.855087 -3.879535
v -3.615514 3.896051 -0.042112
v -3.308396 3.876144 -0.042112
vt 0.648603 0.107966
vt 0.626409 0.064408
vt 0.591842 0.029841
vt 0.548284 0.007647
vt 0.500000 -0.000000
vt 0.451716 0.007647
vt 0.408159 0.029841
vt 0.373591 0.064409
vt 0.351397 0.107966
vt 0.343750 0.156250
vt 0.351397 0.204534
vt 0.373591 0.248091
vt 0.408159 0.282659
vt 0.451716 0.304853
vt 0.500000 0.312500
vt 0.548284 0.304853
vt 0.591841 0.282659
vt 0.626409 0.248091
vt 0.648603 0.204534
vt 0.656250 0.156250
vt 0.375000 0.312500
vt 0.387500 0.312500
vt 0.400000 0.312500
vt 0.412500 0.312500
vt 0.425000 0.312500
vt 0.437500 0.312500
vt 0.450000 0.312500
vt 0.462500 0.312500
vt 0.475000 0.312500
vt 0.487500 0.312500
vt 0.500000 0.312500
vt 0.512500 0.312500
vt 0.525000 0.312500
vt 0.537500 0.312500
vt 0.550000 0.312500
vt 0.562500 0.312500
vt 0.575000 0.312500
vt 0.587500 0.312500
vt 0.600000 0.312500
vt 0.612500 0.312500
vt 0.625000 0.312500
vt 0.375000 0.688440
vt 0.387500 0.688440
vt 0.400000 0.688440
vt 0.412500 0.688440
vt 0.425000 0.688440
vt 0.437500 0.688440
vt 0.450000 0.688440
vt 0.462500 0.688440
vt 0.475000 0.688440
vt 0.487500 0.688440
vt 0.500000 0.688440
vt 0.512500 0.688440
vt 0.525000 0.688440
vt 0.537500 0.688440
vt 0.550000 0.688440
vt 0.562500 0.688440
vt 0.575000 0.688440
vt 0.587500 0.688440
vt 0.600000 0.688440
vt 0.612500 0.688440
vt 0.625000 0.688440
vt 0.648603 0.795466
vt 0.626409 0.751908
vt 0.591842 0.717341
vt 0.548284 0.695147
vt 0.500000 0.687500
vt 0.451716 0.695147
vt 0.408159 0.717341
vt 0.373591 0.751909
vt 0.351397 0.795466
vt 0.343750 0.843750
vt 0.351397 0.892034
vt 0.373591 0.935591
vt 0.408159 0.970159
vt 0.451716 0.992353
vt 0.500000 1.000000
vt 0.548284 0.992353
vt 0.591841 0.970159
vt 0.626409 0.935591
vt 0.648603 0.892034
vt 0.656250 0.843750
vt 0.500000 0.150000
vt 0.500000 0.837500
vn 0.019649 0.303146 -0.952742
vn 0.037731 0.582106 -0.812237
vn 0.037731 0.582106 -0.812237
vn 0.019649 0.303146 -0.952742
vn 0.052119 0.804085 -0.592225
vn 0.052119 0.804085 -0.592225
vn 0.061405 0.947355 -0.314242
vn 0.061405 0.947355 -0.314242
vn 0.064681 0.997891 -0.005499
vn 0.064681 0.997891 -0.005499
vn 0.061625 0.950746 0.303783
vn 0.061625 0.950746 0.303783
vn 0.052537 0.810536 0.583328
vn 0.052537 0.810536 0.583328
vn 0.038306 0.590985 0.805773
vn 0.038306 0.590985 0.805773
vn 0.020326 0.313584 0.949343
vn 0.020326 0.313584 0.949343
vn 0.000356 0.005487 0.999985
vn 0.000356 0.005487 0.999985
vn -0.019649 -0.303147 0.952741
vn -0.019649 -0.303147 0.952741
vn -0.037731 -0.582106 0.812237
vn -0.037731 -0.582106 0.812237
vn -0.052119 -0.804085 0.592225
vn -0.052119 -0.804085 0.592225
vn -0.061405 -0.947355 0.314242
vn -0.061405 -0.947355 0.314242
vn -0.064681 -0.997891 0.005499
vn -0.064681 -0.997891 0.005499
vn -0.061625 -0.950746 -0.303783
vn -0.061625 -0.950746 -0.303783
vn -0.052537 -0.810536 -0.583328
vn -0.052537 -0.810536 -0.583328
vn -0.038306 -0.590985 -0.805773
vn -0.038306 -0.590985 -0.805773
vn -0.020326 -0.313584 -0.949343
vn -0.020326 -0.313584 -0.949343
vn -0.000356 -0.005488 -0.999985
vn -0.000356 -0.005488 -0.999985
vn -0.997906 0.064682 0.000000
vn -0.997906 0.064682 -0.000000
vn -0.997906 0.064682 -0.000000
vn -0.997906 0.064682 0.000000
vn -0.997906 0.064682 -0.000000
vn -0.997906 0.064682 0.000000
vn -0.997906 0.064682 0.000000
vn -0.997906 0.064682 0.000000
vn -0.997906 0.064682 0.000000
vn -0.997906 0.064682 0.000000
vn -0.997906 0.064682 0.000000
vn -0.997906 0.064682 0.000000
vn -0.997906 0.064682 0.000000
vn -0.997906 0.064682 0.000000
vn -0.997906 0.064682 -0.000000
vn -0.997906 0.064682 -0.000000
vn -0.997906 0.064682 -0.000000
vn -0.997906 0.064682 -0.000000
vn -0.997906 0.064682 0.000000
vn -0.997906 0.064682 0.000000
vn -0.997906 0.064682 0.000000
vn 0.997906 -0.064682 -0.000000
vn 0.997906 -0.064682 -0.000000
vn 0.997906 -0.064682 -0.000000
vn 0.997906 -0.064682 -0.000000
vn 0.997906 -0.064682 -0.000000
vn 0.997906 -0.064682 -0.000000
vn 0.997906 -0.064682 0.000000
vn 0.997906 -0.064682 0.000000
vn 0.997906 -0.064682 -0.000000
vn 0.997906 -0.064682 -0.000000
vn 0.997906 -0.064682 -0.000000
vn 0.997906 -0.064682 -0.000000
vn 0.997906 -0.064682 -0.000000
vn 0.997906 -0.064682 -0.000000
vn 0.997906 -0.064682 -0.000000
vn 0.997906 -0.064682 0.000000
vn 0.997906 -0.064682 -0.000000
vn 0.997906 -0.064682 -0.000000
vn 0.997906 -0.064682 -0.000000
vn 0.997906 -0.064682 -0.000000
vn 0.997906 -0.064682 -0.000000
s 1
g pCylinder1
usemtl initialShadingGroup
f 1/21/1 2/22/2 22/43/3 21/42/4
f 2/22/2 3/23/5 23/44/6 22/43/3
f 3/23/5 4/24/7 24/45/8 23/44/6
f 4/24/7 5/25/9 25/46/10 24/45/8
f 5/25/9 6/26/11 26/47/12 25/46/10
f 6/26/11 7/27/13 27/48/14 26/47/12
f 7/27/13 8/28/15 28/49/16 27/48/14
f 8/28/15 9/29/17 29/50/18 28/49/16
f 9/29/17 10/30/19 30/51/20 29/50/18
f 10/30/19 11/31/21 31/52/22 30/51/20
f 11/31/21 12/32/23 32/53/24 31/52/22
f 12/32/23 13/33/25 33/54/26 32/53/24
f 13/33/25 14/34/27 34/55/28 33/54/26
f 14/34/27 15/35/29 35/56/30 34/55/28
f 15/35/29 16/36/31 36/57/32 35/56/30
f 16/36/31 17/37/33 37/58/34 36/57/32
f 17/37/33 18/38/35 38/59/36 37/58/34
f 18/38/35 19/39/37 39/60/38 38/59/36
f 19/39/37 20/40/39 40/61/40 39/60/38
f 20/40/39 1/41/1 21/62/4 40/61/40
s 2
f 2/2/41 1/1/42 41/83/43
f 3/3/44 2/2/41 41/83/43
f 4/4/45 3/3/44 41/83/43
f 5/5/46 4/4/45 41/83/43
f 6/6/47 5/5/46 41/83/43
f 7/7/48 6/6/47 41/83/43
f 8/8/49 7/7/48 41/83/43
f 9/9/50 8/8/49 41/83/43
f 10/10/51 9/9/50 41/83/43
f 11/11/52 10/10/51 41/83/43
f 12/12/53 11/11/52 41/83/43
f 13/13/54 12/12/53 41/83/43
f 14/14/55 13/13/54 41/83/43
f 15/15/56 14/14/55 41/83/43
f 16/16/57 15/15/56 41/83/43
f 17/17/58 16/16/57 41/83/43
f 18/18/59 17/17/58 41/83/43
f 19/19/60 18/18/59 41/83/43
f 20/20/61 19/19/60 41/83/43
f 1/1/42 20/20/61 41/83/43
s 3
f 21/81/62 22/80/63 42/84/64
f 22/80/63 23/79/65 42/84/64
f 23/79/65 24/78/66 42/84/64
f 24/78/66 25/77/67 42/84/64
f 25/77/67 26/76/68 42/84/64
f 26/76/68 27/75/69 42/84/64
f 27/75/69 28/74/70 42/84/64
f 28/74/70 29/73/71 42/84/64
f 29/73/71 30/72/72 42/84/64
f 30/72/72 31/71/73 42/84/64
f 31/71/73 32/70/74 42/84/64
f 32/70/74 33/69/75 42/84/64
f 33/69/75 34/68/76 42/84/64
f 34/68/76 35/67/77 42/84/64
f 35/67/77 36/66/78 42/84/64
f 36/66/78 37/65/79 42/84/64
f 37/65/79 38/64/80 42/84/64
f 38/64/80 39/63/81 42/84/64
f 39/63/81 40/82/82 42/84/64
f 40/82/82 21/81/62 42/84/64
